<svg xmlns="http://www.w3.org/2000/svg" xmlns:xlink="http://www.w3.org/1999/xlink" width="16" height="16" viewBox="0 0 16 16"><defs><clipPath id="a"><rect width="16" height="16" fill="none"/></clipPath></defs><g clip-path="url(#a)"><rect width="16" height="16" fill="none"/><path d="M8,0a8,8,0,1,0,8,8A8.024,8.024,0,0,0,8,0ZM2.4,8a5.633,5.633,0,0,1,.88-3.04l7.76,7.76A5.633,5.633,0,0,1,8,13.6,5.566,5.566,0,0,1,2.4,8Zm10.32,3.04L4.96,3.28A5.633,5.633,0,0,1,8,2.4,5.566,5.566,0,0,1,13.6,8,5.633,5.633,0,0,1,12.72,11.04Z" fill="#104e53"/></g></svg>