<svg xmlns="http://www.w3.org/2000/svg" width="47.191" height="30.747" viewBox="0 0 47.191 30.747">
  <g id="Group_429" data-name="Group 429" transform="translate(-240 -618.324)">
    <g id="Group_390" data-name="Group 390" transform="translate(-731.486 -26.917)">
      <path id="Path_806" data-name="Path 806" d="M1209.184,753.753l-10.484-.02h-.639c.252-5.357-1.408-9.642-5.168-12.78a7.05,7.05,0,0,1,3.828-1.548,17.691,17.691,0,0,1,5.861.228c3.448.95,6.029,4.319,6.516,8.435a2.027,2.027,0,0,0,.086.31Z" transform="translate(-190.506 -77.765)" fill="#024348"/>
      <path id="Path_807" data-name="Path 807" d="M1067.063,768.9c-.04-2.641-.193-5.27.927-7.711a9.479,9.479,0,0,1,4.326-4.7,6.98,6.98,0,0,1,3.2-.8,45.644,45.644,0,0,1,4.922.114c3.785.421,7.057,4.28,7.417,8.705.117,1.439.019,2.9.019,4.4Z" transform="translate(-82.343 -93.066)" fill="#024348"/>
      <path id="Path_808" data-name="Path 808" d="M1091.727,653.544c.094-3.883,2.316-7.3,5.363-8.112,3.276-.873,6.539,1.31,7.731,5.174,1.421,4.606-.719,9.707-4.6,10.965-3.315,1.075-6.818-1.166-7.965-5.151A28.7,28.7,0,0,1,1091.727,653.544Z" transform="translate(-103.381)" fill="#024348"/>
      <path id="Path_809" data-name="Path 809" d="M982.769,754H971.5c0-1.491-.04-2.96.015-4.424a13.429,13.429,0,0,1,.34-2.643c1.02-4.2,4.2-7.145,7.955-7.285a35.338,35.338,0,0,1,5.011.207,6.06,6.06,0,0,1,3.047,1.454C984.145,744.447,982.514,748.709,982.769,754Z" transform="translate(0 -78.06)" fill="#024348"/>
      <path id="Path_810" data-name="Path 810" d="M1206.807,658.6a8.115,8.115,0,0,1-2.1,5.818,5,5,0,0,1-7.669-.224,8.317,8.317,0,0,1,.208-10.812c3.237-3.315,8.227-1.394,9.328,3.6C1206.714,657.615,1206.761,658.268,1206.807,658.6Z" transform="translate(-192.425 -5.37)" fill="#024348"/>
      <path id="Path_811" data-name="Path 811" d="M1000.543,658.894c.1-2.792,1.038-4.959,3.055-6.355a4.983,4.983,0,0,1,6.907,1.219,8.375,8.375,0,0,1,.035,10.106c-1.583,1.951-3.537,2.651-5.752,1.85-2.328-.842-3.636-2.822-4.122-5.573C1000.589,659.7,1000.577,659.254,1000.543,658.894Z" transform="translate(-24.758 -5.29)" fill="#024348"/>
    </g>
  </g>
</svg>
