<svg xmlns="http://www.w3.org/2000/svg" width="40.626" height="38.978" viewBox="0 0 40.626 38.978">
  <g id="Group_424" data-name="Group 424" transform="translate(-911.299 -2372.085)">
    <g id="Group_423" data-name="Group 423" transform="matrix(1, 0.017, -0.017, 1, 173.706, 2128.057)">
      <path id="Path_767" data-name="Path 767" d="M765.924,252.536c.254-.154.507-.033.757.01.662.112,1.334.173,1.985.35a.074.074,0,0,1,.053.069c.006.149-.1.248-.192.351-1.138,1.318-2.3,2.613-3.454,3.918l-4.413,4.995c-.594.672-1.2,1.334-1.781,2.015-.316.369-.307.377.081.644,3.156,2.177,6.331,4.328,9.484,6.509.209.145.465.261.466.578,0,.468,0,2.722,0,3.381a1.072,1.072,0,0,1-.036.408.09.09,0,0,1-.015.024c-.2.223-.4.089-.576-.027-.568-.366-1.118-.758-1.675-1.14q-4.129-2.831-8.262-5.658c-.579-.4-1.148-.806-1.737-1.187-.415-.268-.437-.272-.767.111-.83.963-1.68,1.909-2.527,2.857l0,0a.8.8,0,0,0-.2.251c-2.965,4.717-6.054,9.353-9.07,14.036-.118.183-.19.455-.469.47a.072.072,0,0,1-.076-.072v-3.356a.077.077,0,0,1,0-.019,7.26,7.26,0,0,1,1.184-2.073q4.092-6.307,8.178-12.617a1.427,1.427,0,0,1,.3-.356c.2-.274.427-.52.646-.775.138-.161.133-.3-.055-.418-.231-.14-.4-.377-.682-.436-2.18-.633-4.377-1.207-6.563-1.815-.85-.236-1.7-.465-2.552-.7a.645.645,0,0,1-.449-.308.077.077,0,0,1-.008-.035v-4.011a.071.071,0,0,1,.023-.053.458.458,0,0,1,.453-.047c1.139.313,2.28.62,3.42.931.1.027.177.111.285.119.231.058.309.26.405.441.347.651.708,1.3,1.06,1.943a.928.928,0,0,0,.186.27.072.072,0,0,0,.111-.015c.252-.415.488-.831.708-1.259.11-.214.2-.451.475-.515l.02,0a8.153,8.153,0,0,1,1.762.4,2.649,2.649,0,0,1,.661.219,1.065,1.065,0,0,1,.159.058l.01.005c.909.554,1.763,1.191,2.649,1.781.476.317.488.329.857-.091,1.235-1.408,2.479-2.808,3.719-4.212q1.988-2.252,3.982-4.5c.312-.349.618-.7.925-1.057C765.521,252.76,765.655,252.548,765.924,252.536Z" transform="translate(-0.987 -19.284)" fill="#fff"/>
      <path id="Path_768" data-name="Path 768" d="M742.395,346.761q2.8.778,5.6,1.556c1.246.345,2.494.682,3.74,1.026a.65.65,0,0,1,.35.147,2.651,2.651,0,0,1,.125,1.5,1.453,1.453,0,0,1-.065.3q-3.4,5.23-6.793,10.459-1.476,2.27-2.961,4.535Z" transform="translate(0 -103.497)" fill="#3a9090"/>
      <path id="Path_769" data-name="Path 769" d="M742.395,438.2c.151-.054.19-.205.265-.32q4.5-6.925,8.987-13.853c.078-.12.272-.39.387-.553a.065.065,0,0,1,.118.044c-.008.1-.056.246-.047.307a2.776,2.776,0,0,1,.01.389q0,6.973,0,13.947c0,.2.047.42-.105.6q-3.053.766-6.105,1.532c-.477.119-.955.24-1.438.335a1.561,1.561,0,0,1-2-1.275.643.643,0,0,0-.07-.135Z" transform="translate(0 -171.981)" fill="#2a7777"/>
      <path id="Path_770" data-name="Path 770" d="M746.625,242.308q-1.833-.486-3.667-.972c-.187-.049-.376-.089-.564-.133v-3.748a7.669,7.669,0,0,1,.241-.77,2.975,2.975,0,0,1,2.15-1.8q3.6-.883,7.2-1.781c.148.111.127.276.127.429q0,4.911,0,9.821c0,.151.03.319-.127.426l-2.5-.658c-.129-.239.03-.428.123-.618a28.834,28.834,0,0,0,1.444-3.281,2.95,2.95,0,1,0-5.655-.222,15.357,15.357,0,0,0,1.135,2.691C746.624,241.883,746.782,242.075,746.625,242.308Z" transform="translate(0 -2)" fill="#318e8e"/>
      <path id="Path_771" data-name="Path 771" d="M892.023,252.548l-7.521-5.168q-1.35-.928-2.7-1.852c-.154-.1-.263-.162-.08-.368q5.038-5.679,10.06-11.371c.051-.058.11-.11.165-.165a2.141,2.141,0,0,0,1.213-.155c3.8-.84,7.586-1.7,11.382-2.542a1.6,1.6,0,0,1,2.11,1.464,4.944,4.944,0,0,1-.008,1.512,1.134,1.134,0,0,1-.236.648c-1.786,2.656-3.526,5.341-5.286,8.014-2.239,3.4-4.489,6.794-6.708,10.208-.363.558-.494.611-1.128.388a6.562,6.562,0,0,1-1.107-.368C892.093,252.732,892.092,252.619,892.023,252.548Z" transform="translate(-124.335)" fill="#054d54"/>
      <path id="Path_772" data-name="Path 772" d="M832.535,395.016c.936-1.062,1.878-2.119,2.8-3.192.2-.229.315-.109.48,0q5.911,4.053,11.824,8.1c.128.087.263.163.4.244a.182.182,0,0,1,.166.206,8.418,8.418,0,0,1-1.151,1.412c-1.918,2.15-3.81,4.324-5.731,6.473-.831.929-1.646,1.871-2.472,2.8a.772.772,0,0,1-.479.3l-5.755-.924a.487.487,0,0,1-.105-.044,1.079,1.079,0,0,1-.025-.386c0-4.914.006-9.828-.007-14.742A.33.33,0,0,1,832.535,395.016Z" transform="translate(-80.446 -143.623)" fill="#054d54"/>
      <path id="Path_773" data-name="Path 773" d="M993.216,490.718a24.6,24.6,0,0,1-.047,3.155,2.672,2.672,0,0,1-2.125,2.365c-1.42.364-2.857.662-4.288.986q-3.855.872-7.712,1.735c-.128.029-.264.134-.408.033a.629.629,0,0,1-.111-.48c0-2.873-.006-5.746,0-8.618a.454.454,0,0,1,.045-.2c.26-.459.547-.9.848-1.335.1-.147.194-.31.394-.348.249.039.315.253.4.438.635,1.439,1.445,2.787,2.21,4.228.193-.381.392-.708.576-1.045.55-1,1.1-2,1.565-3.047.074-.164.148-.337.345-.4a3.494,3.494,0,0,1,1.39.313c2.088.61,4.171,1.237,6.259,1.846C992.8,490.419,993.072,490.461,993.216,490.718Z" transform="translate(-210.872 -229.642)" fill="#429d9d"/>
      <path id="Path_774" data-name="Path 774" d="M1028.337,291.978c.011.154.032.309.032.463q0,9.294,0,18.587c0,.163.056.339-.064.488-.177.161-.366.073-.549.02-1.84-.533-3.676-1.081-5.511-1.632-.681-.2-1.373-.374-2.037-.63a.561.561,0,0,1-.348-.223,3.08,3.08,0,0,0-1.566-.994.744.744,0,0,1-.376-.183c-.12-.267.07-.446.193-.634q2.143-3.261,4.289-6.521,2.722-4.142,5.449-8.279C1027.972,292.251,1028.054,292,1028.337,291.978Z" transform="translate(-246.018 -54.574)" fill="#3a9090"/>
      <path id="Path_775" data-name="Path 775" d="M845.278,235.219q-3.417,3.869-6.834,7.739c-.834.944-1.675,1.882-2.5,2.833-.154.178-.254.184-.444.051-.977-.686-1.966-1.356-2.95-2.032-.087-.087-.051-.2-.051-.3q0-5.073,0-10.147c0-.1-.035-.21.05-.3,1.971.314,3.942.624,5.912.944,2.175.353,4.348.714,6.522,1.072C845.093,235.1,845.224,235.074,845.278,235.219Z" transform="translate(-80.459 -1.966)" fill="#08656e"/>
      <path id="Path_776" data-name="Path 776" d="M992.478,262.765l-10.3,15.639c-.043.065-.078.135-.117.2-.119.194-.323.152-.494.156a2.969,2.969,0,0,0-2.808,2.432,2.479,2.479,0,0,0,.065,1.192c.094.311.2.617.306.926.048.148.106.3-.022.44L978,285.4c-.253-.048-.183-.257-.181-.405.019-1.011-.022-2.021.049-3.034.082-1.179.014-2.365.03-3.548,0-.114-.316-.466-.087-.514a12.063,12.063,0,0,1,1.657.576.374.374,0,0,0,.5-.2q1.806-2.77,3.63-5.529,2.3-3.492,4.6-6.984,2.137-3.25,4.272-6.5a.558.558,0,0,1,.064.175q0,1.569,0,3.138A.772.772,0,0,1,992.478,262.765Z" transform="translate(-210.159 -25.361)" fill="#fff"/>
      <path id="Path_777" data-name="Path 777" d="M1037.5,452.233l7.945,2.343c.074.022.151.036.227.054a.645.645,0,0,1,.08.211c-.007,1.308.041,2.616-.022,3.923l-8.067-2.385c-.087-.026-.176-.042-.264-.062-.156-.207-.019-.4.042-.585a5.675,5.675,0,0,0,.427-1.6,3.05,3.05,0,0,0-.306-1.423C1037.486,452.555,1037.4,452.406,1037.5,452.233Z" transform="translate(-263.381 -197.688)" fill="#fdfdfd"/>
      <path id="Path_778" data-name="Path 778" d="M920.113,514.643q-3.452-.556-6.9-1.113a.4.4,0,0,1-.1-.052c-.074-.2.074-.317.179-.44.714-.842,1.457-1.658,2.186-2.487,1.277-1.454,2.569-2.9,3.841-4.353a3.1,3.1,0,0,1,.518-.526c.105-.074.242-.2.334.029q0,4.266,0,8.53C920.162,514.367,920.211,514.515,920.113,514.643Z" transform="translate(-152.434 -245.319)" fill="#347e7e"/>
      <path id="Path_779" data-name="Path 779" d="M897.274,476.468l-6.95,7.864a11.563,11.563,0,0,1-1.914-.249c-.281-.033-.556-.108-.834-.165q2.842-3.21,5.683-6.42,2.029-2.288,4.067-4.568c.1.11.052.247.053.37.008.97,0,1.94.008,2.91A.28.28,0,0,1,897.274,476.468Z" transform="translate(-129.652 -216.173)" fill="none"/>
      <path id="Path_780" data-name="Path 780" d="M830.712,422.757c0,.883-.012,1.766-.012,2.648q0,6.1,0,12.192c0,.182-.008.363-.012.545h-.028l-.027,0q-.005-4.561-.01-9.121,0-2.787,0-5.574c0-.152.041-.314-.065-.452A.423.423,0,0,1,830.712,422.757Z" transform="translate(-78.73 -171.364)" fill="#7febf4" opacity="0"/>
      <path id="Path_781" data-name="Path 781" d="M832.171,233.069q-.007,4.728-.012,9.457c0,.428.008.856.013,1.284l-.1-.06q0-5.338,0-10.677Z" transform="translate(-80.081 -1.966)" fill="#7febf4" opacity="0"/>
      <path id="Path_782" data-name="Path 782" d="M978.245,504.463l.08-.132q.022-.1.072-.011,0,4.6-.01,9.2l-.084-.026q.006-4.386.012-8.773A.337.337,0,0,0,978.245,504.463Z" transform="translate(-210.623 -244.168)" fill="#7febf4" opacity="0"/>
      <path id="Path_783" data-name="Path 783" d="M769.452,259.441a28.247,28.247,0,0,1-1.315-2.99,3.066,3.066,0,0,1,.8-3.316,3.154,3.154,0,0,1,3.446-.555,3.106,3.106,0,0,1,1.816,3.051,6.169,6.169,0,0,1-.536,1.781c-.387.979-.884,1.906-1.354,2.846l-1.217,2.159Z" transform="translate(-22.826 -19.133)"/>
      <path id="Path_784" data-name="Path 784" d="M832.9,374.075a8.03,8.03,0,0,1-.06-1.8c.294.189.586.382.883.566.165.1.119.194.014.307C833.454,373.457,833.178,373.767,832.9,374.075Z" transform="translate(-80.751 -126.285)" fill="#054d54"/>
      <path id="Path_785" data-name="Path 785" d="M978.127,434.132q0,3.276,0,6.553a.519.519,0,0,0,.068.374l-.065.109a.338.338,0,0,0-.072.011l-.027-3.4c.039-.1-.039-.147-.085-.211.13-.107.1-.257.1-.4q0-1.8,0-3.6c.055.054.174.1.229.154" transform="translate(-210.356 -181.016)" fill="#7febf4" opacity="0"/>
      <path id="Path_786" data-name="Path 786" d="M991.327,441.283a3.624,3.624,0,0,1,.039,3.724c-.052.118-.094.239-.141.359-.723,1.6-1.56,3.137-2.465,4.709-.931-1.649-1.81-3.273-2.594-4.947-.119-.343-.236-.686-.357-1.027A3.078,3.078,0,0,1,989,439.982c.039,0,.078,0,.117,0A3.261,3.261,0,0,1,991.327,441.283Z" transform="translate(-217.213 -186.737)"/>
      <path id="Path_787" data-name="Path 787" d="M783.832,266.629a1.808,1.808,0,1,1-1.817-1.789A1.8,1.8,0,0,1,783.832,266.629Z" transform="translate(-33.775 -30.339)" fill="#fefefe"/>
      <path id="Path_788" data-name="Path 788" d="M1001.464,454.056a1.808,1.808,0,1,1-1.812-1.8A1.807,1.807,0,0,1,1001.464,454.056Z" transform="translate(-228.128 -197.709)" fill="#fefefe"/>
    </g>
  </g>
</svg>
