<svg xmlns="http://www.w3.org/2000/svg" width="29.962" height="39.222" viewBox="0 0 29.962 39.222">
  <g id="Group_427" data-name="Group 427" transform="translate(-133 -609.846)">
    <g id="Group_389" data-name="Group 389" transform="translate(-1255.919 348.913)">
      <path id="Path_798" data-name="Path 798" d="M1521.779,624.875l-.441-.1,3.176-2.083,1.963,1.757-2.186.347c-.148.024-.3.051-.443.077Z" transform="translate(-118.861 -324.721)" fill="#024348"/>
      <path id="Path_799" data-name="Path 799" d="M1391.87,374.716c1.005-.267,1.924-.442,2.794-.753a18.172,18.172,0,0,0,12.288-13.717,19.232,19.232,0,0,0,.4-3.721,3.441,3.441,0,1,0-6.882-.075,11.508,11.508,0,0,1-8.8,11.19c-.814.19-1.655.264-2.576.406l-.168-2.321c.647-.084,1.243-.13,1.826-.243a9.192,9.192,0,0,0,7.362-8.167,17.7,17.7,0,0,1,.216-2.166,5.739,5.739,0,0,1,11.27.431,13.606,13.606,0,0,1-.275,4.683,20.467,20.467,0,0,1-12.828,15.5,26.154,26.154,0,0,1-2.586.818.406.406,0,0,1-.339-.043C1393,375.954,1392.455,375.35,1391.87,374.716Z" transform="translate(0 -80.568)" fill="#024348"/>
      <path id="Path_800" data-name="Path 800" d="M1389.045,278.192c-.435-5.327.994-9.91,5.009-13.514a14.063,14.063,0,0,1,7.616-3.578,14.6,14.6,0,0,1,13.953,5.436,14.081,14.081,0,0,1,3.291,9.11c.027,3.474,0,6.949-.014,10.423,0,.429-.076.858-.116,1.28a2.188,2.188,0,0,1-2.1-1.776,4.33,4.33,0,0,1-.059-.762c-.006-3.091.031-6.183-.019-9.273a12.65,12.65,0,0,0-24.93-2.694,18,18,0,0,0-.37,2.954,2.376,2.376,0,0,1-1.727,2.307A5.194,5.194,0,0,1,1389.045,278.192Z" transform="translate(-0.046 0)" fill="#024348"/>
      <path id="Path_801" data-name="Path 801" d="M1389.308,322.767V320.51c.267-.033.53-.051.787-.1a4.605,4.605,0,0,0,3.8-4.582,10.358,10.358,0,0,1,20.561-1.717,10.666,10.666,0,0,1,.157,2.018c.016,2.937,0,5.875.009,8.812a4.617,4.617,0,0,0,3.045,4.474c.273.1.558.166.9.267-.276.662-.534,1.309-.823,1.942a.394.394,0,0,1-.356.116,6.789,6.789,0,0,1-4.924-5.293,7.1,7.1,0,0,1-.145-1.521c-.013-3,0-6-.009-9a8.054,8.054,0,0,0-16.033-1.149c-.115.922-.1,1.87-.31,2.769a6.842,6.842,0,0,1-6.442,5.233C1389.472,322.78,1389.41,322.772,1389.308,322.767Z" transform="translate(-0.349 -39.988)" fill="#024348"/>
      <path id="Path_802" data-name="Path 802" d="M1396.245,410.722c.684-.1,1.353-.176,2.011-.3a13.813,13.813,0,0,0,10.857-11.137c.125-.765.172-1.545.22-2.321a1.2,1.2,0,0,1,1.184-1.236,1.173,1.173,0,0,1,1.123,1.252,16.114,16.114,0,0,1-13.586,15.822c-.942.143-.948.145-1.315-.721-.169-.4-.311-.808-.464-1.214A1.006,1.006,0,0,1,1396.245,410.722Z" transform="translate(-6.576 -120.993)" fill="#024348"/>
      <path id="Path_803" data-name="Path 803" d="M1468.518,555.112a14.627,14.627,0,0,0,6.27,6.373c-.813.455-1.534.869-2.27,1.254-.078.041-.258-.063-.367-.135a16.1,16.1,0,0,1-3.735-3.431l-.314-.392c-.529.432-1.033.862-1.556,1.267a24.761,24.761,0,0,1-5.358,3.16.508.508,0,0,1-.356.038c-.891-.4-1.774-.814-2.65-1.29a24.606,24.606,0,0,0,10.336-6.845Z" transform="translate(-62.171 -264.059)" fill="#024348"/>
      <path id="Path_804" data-name="Path 804" d="M1577.425,506.1a9.4,9.4,0,0,0,6.416,7.89c-.5.579-.979,1.144-1.483,1.682a.489.489,0,0,1-.427.012,10.974,10.974,0,0,1-4.807-4.021,23.173,23.173,0,0,1-1.3-2.5.471.471,0,0,1,.007-.384C1576.344,507.888,1576.88,507.007,1577.425,506.1Z" transform="translate(-167.73 -220.066)" fill="#024348"/>
    </g>
  </g>
</svg>
