<svg xmlns="http://www.w3.org/2000/svg" width="43.017" height="35.183" viewBox="0 0 43.017 35.183">
  <g id="Group_391" data-name="Group 391" transform="translate(-714 -696.964)">
    <path id="Path_794" data-name="Path 794" d="M714,712.63l4.011-1.946c.038-.019.077-.037.115-.058a4.389,4.389,0,0,0,.809-2.61c-.506-1.319-1-2.643-1.513-3.961a.667.667,0,0,1,.145-.8c.666-.711,1.314-1.444,1.948-2.192a.47.47,0,0,1,.627-.174c1.222.551,2.444,1.1,3.675,1.628a.932.932,0,0,0,.658.017,3.692,3.692,0,0,0,1.521-.757,5.733,5.733,0,0,0,.667-1.734c.322-.887.651-1.771.971-2.659a.531.531,0,0,1,.573-.423c.909.026,1.82.028,2.73,0a.593.593,0,0,1,.637.468c.5,1.323,1.016,2.637,1.508,3.964a1.146,1.146,0,0,0,.5.576,2.527,2.527,0,0,0,3.118-.041,14.988,14.988,0,0,1,2.442-1.14.535.535,0,0,1,.5.128c.7.742,1.364,1.523,2.054,2.273a.588.588,0,0,1,.128.679c-.493,1.378-.985,2.756-1.453,4.145a1.5,1.5,0,0,0-.008.711,2.867,2.867,0,0,0,2.173,2.47,18.191,18.191,0,0,1,2.492,1.125.509.509,0,0,1,.3.55c-.014,1.043-.021,2.087,0,3.129a.634.634,0,0,1-.391.685c-1.2.571-2.4,1.144-3.589,1.743a1.265,1.265,0,0,0-.457.491,3.375,3.375,0,0,0,.014,3.544,23.269,23.269,0,0,1,1,2.64.638.638,0,0,1-.163.754c-.66.717-1.312,1.446-1.947,2.193a.471.471,0,0,1-.629.168c-1.222-.552-2.442-1.108-3.673-1.633a.972.972,0,0,0-.658,0c-.4.137-.774.374-1.172.517a.99.99,0,0,0-.6.715c-.45,1.311-.929,2.609-1.391,3.915a.526.526,0,0,1-.575.416c-.924-.024-1.848-.02-2.772,0a.514.514,0,0,1-.554-.386c-.508-1.336-1.03-2.666-1.531-4a.909.909,0,0,0-.526-.615c-.528-.2-1.043-.639-1.561-.635-.5,0-1,.447-1.5.685-.814.384-1.633.754-2.445,1.142a.435.435,0,0,1-.589-.158c-.639-.742-1.287-1.475-1.949-2.19a.684.684,0,0,1-.172-.8c.483-1.33.94-2.674,1.43-4a1.466,1.466,0,0,0,.006-.908,2.919,2.919,0,0,0-2.131-2.355A22.352,22.352,0,0,1,714,716.579Zm15.722-3.7c-2.745-.042-5.03,2.449-5.067,5.526-.038,3.144,2.18,5.7,4.977,5.728,2.727.03,5.006-2.457,5.044-5.5C734.716,711.52,732.52,708.972,729.722,708.929Z" transform="translate(0 0)" fill="#024348"/>
    <path id="Path_795" data-name="Path 795" d="M982.88,704.311c-.477.517-.957,1.029-1.43,1.551a1.571,1.571,0,0,0,.015,1.494c.354.411.7.828,1.071,1.223a.611.611,0,0,1,.131.829,1.09,1.09,0,0,0-.068.175c-.469,1.2-.469,1.2-1.607,1.155a2.037,2.037,0,0,1-.5-.039c-.59-.178-.9.293-1.227.695a.745.745,0,0,0-.072.4c-.009.594-.016,1.188,0,1.781a.456.456,0,0,1-.329.524,1.516,1.516,0,0,0-.433.179c-.638.452-1.133.28-1.552-.4-.151-.246-.383-.427-.544-.667a.952.952,0,0,0-.869-.438.9.9,0,0,0-.808.372c-.31.391-.667.732-.994,1.106a.367.367,0,0,1-.56.09,1.651,1.651,0,0,0-.229-.118c-1.085-.56-1.085-.56-1.062-1.911,0-.16.008-.321.013-.481.033-.978-.4-1.493-1.258-1.495a4.353,4.353,0,0,0-.713-.01c-.742.122-1.146-.245-1.276-1.07a1.479,1.479,0,0,0-.141-.4.557.557,0,0,1,.125-.713,9.721,9.721,0,0,1,.889-.949,1.492,1.492,0,0,0,.461-1.437.761.761,0,0,0-.2-.4c-.376-.453-.762-.9-1.151-1.335a.454.454,0,0,1-.078-.594,1.536,1.536,0,0,0,.085-.219c.484-1.241.484-1.241,1.688-1.215a1.742,1.742,0,0,1,.46.019c.571.172.881-.271,1.2-.665A.839.839,0,0,0,972,700.9q.019-.89.013-1.78a.454.454,0,0,1,.3-.488c1.329-.589,1.32-.589,2.318.576a2.41,2.41,0,0,0,.805.69.976.976,0,0,0,1.244-.473,10.9,10.9,0,0,1,.869-.976c.159-.181.317-.236.518-.092a2.227,2.227,0,0,0,.3.162c1.014.513,1.014.513,1,1.8a2.343,2.343,0,0,1-.014.48,1.463,1.463,0,0,0,.6,1.459.6.6,0,0,0,.384.115c.517.021,1.035.026,1.553.033a.493.493,0,0,1,.518.432c.124.437.31.85.47,1.274Zm-9.68,2.02a2.6,2.6,0,0,0,2.454,2.74,2.529,2.529,0,0,0,2.35-2.683,2.635,2.635,0,0,0-2.464-2.747A2.526,2.526,0,0,0,973.2,706.332Z" transform="translate(-225.863 -1.119)" fill="#024348"/>
    <path id="Path_796" data-name="Path 796" d="M814.178,790.168c2.8.043,4.994,2.591,4.954,5.75-.038,3.046-2.318,5.533-5.045,5.5-2.8-.031-5.014-2.583-4.977-5.728C809.148,792.618,811.433,790.127,814.178,790.168Z" transform="translate(-84.456 -81.239)" fill="none"/>
    <path id="Path_797" data-name="Path 797" d="M1011.587,742.949a2.526,2.526,0,0,1,2.34-2.691,2.635,2.635,0,0,1,2.464,2.747,2.529,2.529,0,0,1-2.349,2.683A2.6,2.6,0,0,1,1011.587,742.949Z" transform="translate(-264.25 -37.737)" fill="none"/>
  </g>
</svg>
