<svg xmlns="http://www.w3.org/2000/svg" width="55.33" height="77.329" viewBox="0 0 55.33 77.329">
  <g id="Group_434" data-name="Group 434" transform="translate(-187.876 -608.325)">
    <g id="Group_420" data-name="Group 420" transform="translate(188 608.375)">
      <path id="Path_836" data-name="Path 836" d="M1361.713,540c1.775.3,3.584.486,5.32.905,10.773,2.6,18.641,10.581,19.963,20.232a19.967,19.967,0,0,1-2.029,12.206,108.616,108.616,0,0,0-8.424,19.957c-.651,2.286-1.17,4.6-1.651,6.923a4.7,4.7,0,0,1-2.726,3.546.9.9,0,0,0-.392.713c-.03,2.236-.121,4.476.009,6.707.164,2.822-1.124,5.189-4.879,6.04h-14.536c-.433-.128-.883-.226-1.3-.39-2.257-.9-3.5-2.422-3.541-4.593-.049-2.537-.023-5.075,0-7.612a.921.921,0,0,0-.625-1.007,4,4,0,0,1-2.433-3.034c-1.41-8.153-4.536-15.846-8.218-23.392a57.853,57.853,0,0,1-3.068-6.457c-4.567-13.413,5.182-27.468,20.894-30.254,1.152-.2,2.322-.328,3.484-.489Zm.749,30.928h-6.826c6.738-.255,20.3-.534,27.04-.778a1.144,1.144,0,0,0,1.288-.985,19.108,19.108,0,0,0,.158-9.5c-2.85-11.575-15.145-18.931-28.548-17.117-14.206,1.922-23.716,14.447-20.263,26.64.2.7.546.925,1.315.957C1344.283,570.471,1362.462,570.928,1362.462,570.928Zm-25.771,1.469c.447.908.835,1.708,1.234,2.505,4.068,8.143,7.551,16.445,9.089,25.28.2,1.136,1.086,1.764,2.5,1.767q10.119.02,20.238,0a2.284,2.284,0,0,0,2.54-1.911c.7-2.921,1.331-5.861,2.2-8.746a114.16,114.16,0,0,1,7.677-18.046c.123-.245.235-.495.4-.848A327.336,327.336,0,0,1,1336.691,572.4Zm32.241,40.608h-.855q-4.28,0-8.559,0c-1,0-1.6-.437-1.6-1.129s.6-1.122,1.606-1.124q3.933-.008,7.868,0h1.73V608.3h-.979q-4.28,0-8.559,0c-1.071,0-1.68-.436-1.664-1.156.016-.693.6-1.092,1.632-1.094q4.323-.008,8.646,0h.908V604.27h-18.92v1.778h2.231c.231,0,.462-.007.692,0,.834.038,1.344.454,1.354,1.1s-.49,1.113-1.313,1.14c-.994.033-1.991.008-2.976.008v2.45c.952,0,1.842-.006,2.731,0,1.005.009,1.578.44,1.558,1.155-.02.685-.573,1.088-1.539,1.1-.855.01-1.71,0-2.583,0a2.747,2.747,0,0,0,2.689,1.942q6.613.051,13.227,0A2.722,2.722,0,0,0,1368.933,613.006Z" transform="translate(-1332.053 -540)" fill="#024348" stroke="#024348" stroke-width="0.1"/>
      <path id="Path_837" data-name="Path 837" d="M1368.069,580.2q-11.486-.5-22.97-1c-.769-.032-1.117-.258-1.315-.957-3.453-12.193,6.057-24.718,20.263-26.64,13.4-1.814,25.7,5.542,28.548,17.117a19.1,19.1,0,0,1-.158,9.5,1.143,1.143,0,0,1-1.288.985C1384.409,579.442,1369.032,579.981,1368.069,580.2Z" transform="translate(-1340.525 -549.047)" fill="#32676a"/>
      <path id="Path_838" data-name="Path 838" d="M1352.118,701.088a327.3,327.3,0,0,0,45.878,0c-.167.353-.28.6-.4.848a114.226,114.226,0,0,0-7.678,18.046c-.865,2.885-1.5,5.824-2.2,8.745a2.283,2.283,0,0,1-2.539,1.911q-10.12.022-20.238,0c-1.416,0-2.3-.63-2.5-1.767-1.539-8.835-5.022-17.137-9.09-25.28C1352.954,702.8,1352.565,702,1352.118,701.088Zm15.186,21.858c-.027-.148-.045-.323-.089-.494q-1.046-4.111-2.1-8.222c-.443-1.737-.835-3.486-1.358-5.205a1.947,1.947,0,0,0-1.067-1.021,1.388,1.388,0,0,0-1.167.376,1.63,1.63,0,0,0-.207,1.261c.7,2.92,1.457,5.829,2.2,8.741.4,1.591.8,3.183,1.224,4.77a1.215,1.215,0,0,0,1.427.946A1.121,1.121,0,0,0,1367.3,722.946Zm21.433-13.659a1.114,1.114,0,0,0-.986-1.31,1.231,1.231,0,0,0-1.489.745,2.23,2.23,0,0,0-.118.361q-1.13,4.442-2.261,8.883c-.386,1.517-.826,3.026-1.14,4.555a1.625,1.625,0,0,0,.372,1.286,1.419,1.419,0,0,0,1.224.2,1.89,1.89,0,0,0,.9-1.072c.739-2.681,1.4-5.377,2.088-8.069C1387.807,712.981,1388.281,711.1,1388.737,709.287Zm-19.2.154q.578,6.677,1.16,13.355c.081.918.568,1.363,1.375,1.319a1.244,1.244,0,0,0,1.189-1.534q-.573-6.6-1.131-13.205c-.08-.942-.555-1.464-1.358-1.441C1369.952,707.958,1369.494,708.517,1369.538,709.442Zm10.878,0c.043-.923-.418-1.484-1.239-1.505a1.263,1.263,0,0,0-1.338,1.219q-.588,6.79-1.161,13.58a1.286,1.286,0,0,0,2.564.21Q1379.839,716.192,1380.416,709.439Z" transform="translate(-1347.48 -668.69)" fill="#32676a"/>
      <path id="Path_839" data-name="Path 839" d="M1429.182,868.3a2.722,2.722,0,0,1-2.68,1.941q-6.613.053-13.227,0a2.746,2.746,0,0,1-2.689-1.942c.873,0,1.728.008,2.583,0,.966-.011,1.519-.414,1.539-1.1.021-.715-.553-1.146-1.558-1.155-.89-.008-1.78,0-2.731,0v-2.45c.985,0,1.982.025,2.977-.008.823-.027,1.323-.5,1.313-1.14s-.52-1.06-1.353-1.1c-.23-.011-.461,0-.692,0h-2.231v-1.779h18.92v1.779h-.908q-4.323,0-8.646,0c-1.036,0-1.616.4-1.632,1.094-.017.72.593,1.154,1.664,1.156q4.28.008,8.56,0h.978v2.446h-1.73q-3.934,0-7.868,0c-1.006,0-1.606.432-1.606,1.124s.6,1.127,1.6,1.129q4.279.009,8.559,0Z" transform="translate(-1392.302 -795.293)" fill="#447275"/>
      <path id="Path_840" data-name="Path 840" d="M1397.755,750.3a1.121,1.121,0,0,1-1.137,1.151,1.215,1.215,0,0,1-1.427-.946c-.424-1.587-.82-3.179-1.224-4.77-.741-2.912-1.5-5.821-2.2-8.741a1.63,1.63,0,0,1,.207-1.261,1.389,1.389,0,0,1,1.167-.376,1.946,1.946,0,0,1,1.067,1.022c.523,1.719.915,3.468,1.358,5.205q1.048,4.111,2.1,8.222C1397.709,749.976,1397.729,750.152,1397.755,750.3Z" transform="translate(-1377.931 -696.044)" fill="#024348" stroke="#024348" stroke-width="0.1"/>
      <path id="Path_841" data-name="Path 841" d="M1490.518,736.51c-.457,1.809-.93,3.694-1.41,5.578-.685,2.692-1.35,5.389-2.088,8.069a1.891,1.891,0,0,1-.9,1.072,1.421,1.421,0,0,1-1.225-.2,1.622,1.622,0,0,1-.371-1.286c.313-1.528.753-3.037,1.14-4.554q1.133-4.441,2.261-8.883a2.249,2.249,0,0,1,.118-.361,1.231,1.231,0,0,1,1.49-.745A1.114,1.114,0,0,1,1490.518,736.51Z" transform="translate(-1449.26 -695.913)" fill="#024348" stroke="#024348" stroke-width="0.1"/>
      <path id="Path_842" data-name="Path 842" d="M1427.463,736.633c-.044-.925.414-1.484,1.235-1.507.8-.023,1.278.5,1.357,1.441q.557,6.6,1.131,13.206a1.244,1.244,0,0,1-1.189,1.534c-.807.044-1.294-.4-1.375-1.319Q1428.032,743.312,1427.463,736.633Z" transform="translate(-1405.404 -695.882)" fill="#024348" stroke="#024348" stroke-width="0.1"/>
      <path id="Path_843" data-name="Path 843" d="M1462.075,736.631q-.585,6.752-1.174,13.5a1.286,1.286,0,0,1-2.564-.21q.573-6.79,1.161-13.58a1.264,1.264,0,0,1,1.339-1.219C1461.657,735.147,1462.119,735.708,1462.075,736.631Z" transform="translate(-1429.14 -695.882)" fill="#024348" stroke="#024348" stroke-width="0.1"/>
    </g>
  </g>
</svg>
