<svg xmlns="http://www.w3.org/2000/svg" width="29.323" height="40.576" viewBox="0 0 29.323 40.576">
  <g id="Group_425" data-name="Group 425" transform="translate(-1020.75 -2362.096)">
    <path id="Path_844" data-name="Path 844" d="M1296.3,618.625a2.685,2.685,0,0,1-1.669-2.769c0-5.615-.008-11.229.016-16.844a4.065,4.065,0,0,1,.341-1.578,1.907,1.907,0,0,1,1.9-1.178q9.223.018,18.446.006h.492a2.921,2.921,0,0,0,.035-.313c0-1.9.019-3.8,0-5.706a6.808,6.808,0,0,0-13.528-1.083,10.8,10.8,0,0,0-.095,1.244,2.417,2.417,0,1,1-4.83-.068,11.672,11.672,0,0,1,8.228-11.236,11.551,11.551,0,0,1,14.732,8.542,14.314,14.314,0,0,1,.314,2.863c.049,1.8.014,3.595.014,5.393v.339c.133.009.245.022.357.023a2.244,2.244,0,0,1,2.385,2.2c.018.194.024.39.024.585,0,5.589.007,11.177-.01,16.766a4.875,4.875,0,0,1-.253,1.446,2.255,2.255,0,0,1-1.4,1.363Zm10.42-8.536c0,.794-.008,1.588,0,2.382a1.122,1.122,0,0,0,1.245,1.227c.677,0,1.354,0,2.031,0,.969,0,1.368-.4,1.37-1.379,0-1.471.007-2.942,0-4.413a1.24,1.24,0,0,1,.268-.815,3,3,0,0,0,.362-3.17,2.9,2.9,0,0,0-2.518-1.833,3.164,3.164,0,0,0-2.888,5.192.74.74,0,0,1,.127.426C1306.728,608.5,1306.722,609.295,1306.722,610.089Z" transform="translate(-273.633 1783.797)" fill="#32676a" stroke="#084c52" stroke-width="0.5"/>
  </g>
</svg>
