<svg xmlns="http://www.w3.org/2000/svg" width="58.4" height="81.004" viewBox="0 0 58.4 81.004">
  <path id="Path_846" data-name="Path 846" d="M1297.986,659.024c-2.476-1.036-3.354-3.023-3.353-5.563.007-11.279-.015-22.557.032-33.836a8.166,8.166,0,0,1,.685-3.17,3.832,3.832,0,0,1,3.812-2.365q18.527.037,37.054.013h.988a5.862,5.862,0,0,0,.07-.628c0-3.821.038-7.642-.009-11.462a13.676,13.676,0,0,0-27.176-2.175,21.71,21.71,0,0,0-.191,2.5,4.854,4.854,0,1,1-9.7-.138,23.446,23.446,0,0,1,16.528-22.572,23.2,23.2,0,0,1,29.594,17.16,28.779,28.779,0,0,1,.631,5.752c.1,3.608.028,7.221.028,10.833v.682c.267.018.492.045.718.047a4.507,4.507,0,0,1,4.791,4.427c.035.39.048.784.048,1.176q0,16.839-.02,33.679a9.8,9.8,0,0,1-.509,2.9,4.531,4.531,0,0,1-2.821,2.738Zm20.932-17.147c0,1.6-.017,3.191,0,4.786a2.255,2.255,0,0,0,2.5,2.466c1.36.006,2.72,0,4.08,0,1.946,0,2.749-.805,2.751-2.77,0-2.955.013-5.91-.01-8.865a2.491,2.491,0,0,1,.539-1.637,6.028,6.028,0,0,0,.728-6.369,5.816,5.816,0,0,0-5.058-3.682c-2.82-.263-5.159.593-6.541,3.186a6.178,6.178,0,0,0,.739,7.243,1.485,1.485,0,0,1,.255.855C1318.929,638.686,1318.917,640.282,1318.918,641.877Z" transform="translate(-1294.383 -578.27)" fill="#32676a" stroke="#084c52" stroke-width="0.5"/>
</svg>
